HIERARCHY
ROOT base
{
	OFFSET 0.0 0.0 0.0
	CHANNELS 6 Xposition Yposition Zposition Zrotation Yrotation Xrotation
	JOINT root
	{
		OFFSET 0 0 0
		CHANNELS 6 Xposition Yposition Zposition Zrotation Yrotation Xrotation
		JOINT chest
		{
			OFFSET 0 4.72302 0
			CHANNELS 3 Zrotation Yrotation Xrotation
			JOINT neck
			{
				OFFSET 0 4.47788 0
				CHANNELS 3 Zrotation Yrotation Xrotation
				End Site
				{
					OFFSET 0.0 0.0 0.0
				}
			}
			JOINT right_shoulder
			{
				OFFSET -0.481 4.87 3.6622
				CHANNELS 3 Zrotation Yrotation Xrotation
				JOINT right_elbow
				{
					OFFSET 0 -5.49576 0
					CHANNELS 3 Zrotation Yrotation Xrotation
					JOINT right_wrist
					{
						OFFSET 0 -5.17894 0
						CHANNELS 3 Zrotation Yrotation Xrotation
						End Site
						{
							OFFSET 0.0 0.0 0.0
						}
					}
				}
			}
			JOINT left_shoulder
			{
				OFFSET -0.481 4.87 -3.6622
				CHANNELS 3 Zrotation Yrotation Xrotation
				JOINT left_elbow
				{
					OFFSET 0 -5.49576 0
					CHANNELS 3 Zrotation Yrotation Xrotation
					JOINT left_wrist
					{
						OFFSET 0 -5.17894 0
						CHANNELS 3 Zrotation Yrotation Xrotation
						End Site
						{
							OFFSET 0.0 0.0 0.0
						}
					}
				}
			}
		}
		JOINT right_hip
		{
			OFFSET 0 0 1.69774
			CHANNELS 3 Zrotation Yrotation Xrotation
			JOINT right_knee
			{
				OFFSET 0 -8.43092 0
				CHANNELS 3 Zrotation Yrotation Xrotation
				JOINT right_ankle
				{
					OFFSET 0 -8.1974 0
					CHANNELS 3 Zrotation Yrotation Xrotation
					End Site
					{
						OFFSET 0.0 0.0 0.0
					}
				}
			}
		}
		JOINT left_hip
		{
			OFFSET 0 0 -1.69774
			CHANNELS 3 Zrotation Yrotation Xrotation
			JOINT left_knee
			{
				OFFSET 0 -8.43092 0
				CHANNELS 3 Zrotation Yrotation Xrotation
				JOINT left_ankle
				{
					OFFSET 0 -8.1974 0
					CHANNELS 3 Zrotation Yrotation Xrotation
					End Site
					{
						OFFSET 0.0 0.0 0.0
					}
				}
			}
		}
	}
	JOINT red_arrow
	{
		OFFSET 0 0 0
		CHANNELS 3 Zrotation Yrotation Xrotation
		End Site
		{
			OFFSET 0.0 0.0 0.0
		}
	}
	JOINT blue_arrow
	{
		OFFSET 0 0 0
		CHANNELS 3 Zrotation Yrotation Xrotation
		End Site
		{
			OFFSET 0.0 0.0 0.0
		}
	}
}
MOTION
Frames: 6
Frame Time: 0.0333333333333333
0 18.08466 0 0 0 0 0 0 0 0 -90 0 0 0 0 0 0 0 0 0 -90 0 0 0 0 0 0 0 0 90 0 0 0 0 0 0 0 0 0 0 0 0 0 0 0 0 0 0 0 0 0 0 0 0 0 0 0 0 0 0
0.611128085851669 0 0.0705729506909847 0 2.18017889261069 0 0 17.0016392707825 0 -6.74998768078385 2.19905538523063E-15 1.5906444837043 -3.14531465849738 -6.24644791556841 -0.750824104995724 2.61997139342452 0.368208648019622 0.270326774315426 -10.7387039399356 4.45120499778717 -4.01356555686608 9.59498912810503 0 0 0 0 0 10.4238109857847 -19.9239004357052 19.7251380405706 35.0646748968497 0 0 0 0 0 29.8055069457554 -6.79892573852662 1.01502324847332 -18.2202348280408 0 0 -6.14708700081606 5.87125575013867 -3.69977683126151 -4.38250563846219 5.54329738715556 -1.70434230721049 -29.217677797482 0 0 -0.924877788850908 -4.87373056242952 2.62145829041605 0 0 0 0 0 0
1.26627163887024 0 0.0953933623619378 0 2.08208691182484 0 0 17.0604815125465 0 -7.44623641536546 -1.84804141770874 0.591784769319735 -5.07229104265659 -5.5635993926621 -1.03367095820164 -1.27258117525906 -0.303430941525502 0.367279803164705 -7.96762623810084 6.29475818156843 -4.42807512218673 11.6169838158436 0 0 0 0 0 10.6265175545024 -17.1928606496586 16.3940487740718 33.8809723778352 0 0 0 0 0 27.4353793556815 -4.94900329553028 3.15564708373852 -17.1443639205479 0 0 -3.33214198502701 5.79872582509508 -5.04678712627816 0.543187739122075 4.63224691963907 -0.544120136161957 -38.1040202850462 0 0 -17.1082025640098 -6.24549111133937 4.43454784773409 0 0 0 0 0 0
1.98174282759428 0 0.137650334462523 0 2.00390152220541 0 0 17.2472189903259 0 -6.81392233888696 -1.47503437584727 -0.46653720131188 -6.73988807141103 -5.5298334916684 -1.87331162997391 -1.09742063114894 0.176350807601037 0.194472705213687 -5.88111600404111 5.45885172177797 -3.91634669219118 13.1852097634305 0 0 0 0 0 10.7812829793442 -15.7128404096717 13.4295714556164 35.0750260485369 0 0 0 0 0 22.0927679997962 -3.49710146914594 4.52145712454844 -12.7957899429968 0 0 -2.87402529920886 3.99202241091881 -4.65590328838891 6.20539414113712 3.14356865273832 1.08468844602255 -48.2872107903207 0 0 -18.0174962537174 -5.64792412016918 3.13280495593055 0 0 0 0 0 0
2.75786177664995 0 0.106913075596094 0 1.9018957062414 0 0 17.3781985878944 0 -6.17919312232889 -1.92685882330394 -1.30298783400842 -5.87628715811518 -4.545980539789 -1.88513297091445 0.446486350240828 0.528783716566083 -0.497776466445686 -4.97923553972995 9.61947915020047 -6.30467251626684 15.9025808879262 0 0 0 0 0 8.53630970978332 -10.9756086781583 9.61678191427513 31.9771356938696 0 0 0 0 0 17.0735788623253 -2.35606726697727 5.52506468936074 -9.31276998046833 0 0 -1.93897995554406 3.55877812296448 -4.3764247665225 12.2048860273734 1.96068848768235 2.53825520868452 -58.9500649904378 0 0 -13.5852818795322 -4.34801420526702 2.03282427286723 0 0 0 0 0 0
3.53931060433388 0 0.0642909571528435 0 1.8012708154567 0 0 17.4504791140556 0 -5.0757280782636 -1.90438130246069 -1.90421767719726 -4.89872632502954 -3.42936978944289 -1.80782394527944 1.86656036982506 0.630022950119295 -0.616621855905736 -3.6718116545393 12.1070146298871 -7.85587237221492 20.3900749367799 0 0 0 0 0 4.53528429487102 -5.59971505264809 7.08119357229339 29.8715796180515 0 0 0 0 0 12.575850503409 -1.79827600698992 6.00970636237456 -7.87120220707649 0 0 0.0529019341501047 3.34095558546293 -4.13419611857405 18.0075029321132 1.4366131093548 4.76727366813493 -68.9133165742487 0 0 -6.07537448732516 -2.94065480709438 1.90887777546682 0 0 0 0 0 0
